<?xml version="1.0" encoding="UTF-8"?>
<svg xmlns="http://www.w3.org/2000/svg" viewBox="0 0 800 420" role="img" aria-label="ai chip large" >
  <title>ai chip large</title>
  <g fill="none" stroke="#3de5b1" stroke-width="2.2" stroke-linecap="round" stroke-linejoin="round"><rect x="250" y="80" width="300" height="260" rx="15"/><rect x="320" y="140" width="160" height="140" rx="8"/><path d="M320 190h160M320 230h160M360 140v140M400 140v140M440 140v140M250 120H145M250 210H145M250 300H145M550 120h105M550 210h105M550 300h105M305 80V20M400 80V20M495 80v-60M305 340v60M400 340v60M495 340v60"/></g>
</svg>
