<?xml version="1.0" encoding="UTF-8"?>
<svg xmlns="http://www.w3.org/2000/svg" viewBox="0 0 24 24" role="img" aria-label="brain" style="color:#62f6bd">
  <title>brain</title>
  <g fill="none" stroke="currentColor" stroke-width="1.7" stroke-linecap="round" stroke-linejoin="round"><path d="M9.5 5.2A3.5 3.5 0 0 0 4 8a3.2 3.2 0 0 0 .4 1.5A3.6 3.6 0 0 0 5.5 16 3.5 3.5 0 0 0 9 19.8c1.2 0 2.2-.5 3-1.3V7.5a3.3 3.3 0 0 0-2.5-2.3Z"/><path d="M14.5 5.2A3.5 3.5 0 0 1 20 8a3.2 3.2 0 0 1-.4 1.5 3.6 3.6 0 0 1-1.1 6.5 3.5 3.5 0 0 1-3.5 3.8c-1.2 0-2.2-.5-3-1.3V7.5a3.3 3.3 0 0 1 2.5-2.3Z"/><path d="M9 10h3M12 13h3"/></g>
</svg>
